# xmcd
#
# Track frame offsets:
#	150
#	15945
#	33930
#	47422
#	61117
#	77082
#	89857
#	103485
#	119632
#	136762
#	152212
#	168827
#	184684
#	204225
#	228742
#	245575
#
# Disc length: 3507 seconds
#
# Revision: 2
# Processed by: cddbd v1.4PL0 Copyright (c) Steve Scherf et al.
# Submitted via: audiograbber 1.81.03
#
DISCID=d00db110
DTITLE=Fernando Echavarria Y La Familia André - Historia Musical (16 Exitos)
DYEAR=2000
DGENRE=Son
TTITLE0=Pato Robao
TTITLE1=Maria Elena
TTITLE2=Teresa
TTITLE3=El Fiao
TTITLE4=Morena
TTITLE5=Candelo
TTITLE6=Las Flores
TTITLE7=Amigo Sol
TTITLE8=Mariposa
TTITLE9=Magdalena
TTITLE10=Despacito
TTITLE11=Filosonando
TTITLE12=Culpable
TTITLE13=Samuel
TTITLE14=Marcela
TTITLE15=Te Quiero
EXTD=
EXTT0=
EXTT1=
EXTT2=
EXTT3=
EXTT4=
EXTT5=
EXTT6=
EXTT7=
EXTT8=
EXTT9=
EXTT10=
EXTT11=
EXTT12=
EXTT13=
EXTT14=
EXTT15=
PLAYORDER=
